<mxfile host="app.diagrams.net" modified="2024-02-06T19:02:24.853Z" agent="Mozilla/5.0 (Macintosh; Intel Mac OS X 10_15_7) AppleWebKit/605.1.15 (KHTML, like Gecko) Version/15.6.1 Safari/605.1.15" version="23.1.1" etag="LkM5jaLgX4hG2ADsEl4T" type="github">
  <diagram name="Page-1" id="-R-Mg5HMayyMecTNn0D5">
    <mxGraphModel>
      <root>
        <mxCell id="0" />
        <mxCell id="1" parent="0" />
      </root>
    </mxGraphModel>
  </diagram>
</mxfile>
